<?xml version="1.0" standalone="no"?>
<!DOCTYPE svg PUBLIC "-//W3C//DTD SVG 20010904//EN"
 "http://www.w3.org/TR/2001/REC-SVG-20010904/DTD/svg10.dtd">
<svg version="1.0" xmlns="http://www.w3.org/2000/svg"
 width="796.000000pt" height="796.000000pt" viewBox="0 0 796.000000 796.000000"
 preserveAspectRatio="xMidYMid meet">
<metadata>
Created by potrace 1.14, written by Peter Selinger 2001-2017
</metadata>
<g transform="translate(0.000000,796.000000) scale(0.100000,-0.100000)"
fill="#000000" stroke="none">
<path d="M4367 5703 c-1 -1 -47 -4 -102 -8 -102 -6 -133 -9 -195 -20 -106 -18
-148 -26 -170 -31 -14 -3 -36 -7 -50 -10 -50 -10 -293 -85 -321 -99 -16 -9
-29 -13 -29 -10 0 4 -17 -2 -37 -13 -21 -10 -76 -37 -123 -58 -98 -45 -337
-180 -360 -204 -3 -3 -32 -25 -65 -50 -33 -24 -65 -49 -71 -55 -7 -5 -31 -26
-55 -45 -83 -67 -233 -224 -306 -320 -23 -30 -47 -61 -53 -67 -6 -7 -10 -16
-9 -19 0 -4 -3 -10 -8 -13 -15 -10 -78 -105 -75 -113 1 -4 -8 -8 -21 -8 -12 1
-47 1 -77 1 -57 1 -62 0 -105 -2 -23 -1 -30 -10 -26 -33 1 -4 -3 -14 -9 -20
-5 -7 -8 -15 -5 -17 2 -3 0 -22 -6 -44 -5 -22 -11 -58 -14 -80 -2 -22 -7 -51
-10 -65 -3 -14 -8 -41 -11 -60 -2 -19 -7 -46 -10 -60 -2 -14 -12 -65 -20 -115
-9 -49 -18 -101 -21 -115 -15 -86 -14 -148 1 -178 9 -18 14 -32 11 -32 -3 0 2
-11 11 -25 15 -24 14 -26 -74 -142 -83 -107 -118 -165 -114 -185 3 -12 -5 -10
-46 11 -20 10 -91 40 -157 65 -66 26 -129 52 -140 57 -69 31 -581 188 -675
206 l-25 5 0 -419 c-1 -465 -5 -434 70 -447 22 -4 81 -18 130 -33 50 -14 95
-26 102 -27 7 -1 16 -5 19 -9 4 -4 17 -7 29 -7 12 0 25 -3 29 -8 4 -4 11 -7
14 -7 50 -4 392 -155 435 -193 9 -8 17 -13 17 -10 0 3 43 -18 96 -47 112 -62
174 -80 254 -72 80 7 150 44 312 168 15 11 44 33 65 48 l38 28 95 -97 c92 -93
195 -176 312 -253 32 -20 62 -37 67 -37 6 0 12 -4 16 -9 8 -14 -39 1 -110 35
-33 15 -63 28 -67 29 -3 0 -9 3 -13 7 -9 9 -35 -1 -35 -13 0 -5 -38 -70 -85
-145 -47 -74 -85 -139 -85 -144 0 -5 -5 -10 -12 -12 -11 -4 145 -118 162 -118
5 0 15 -6 22 -13 13 -12 201 -107 222 -112 6 -1 29 -10 51 -20 22 -9 45 -18
50 -20 6 -1 42 -12 82 -24 39 -12 80 -24 90 -26 10 -2 19 -4 21 -5 3 -3 10 -5
67 -15 28 -4 57 -10 65 -12 18 -4 64 -12 110 -19 27 -3 257 -16 305 -16 47 0
236 18 270 25 11 3 40 8 65 11 25 3 60 10 78 15 17 5 32 8 32 6 0 -2 18 2 41
10 22 8 43 14 47 13 4 -1 14 1 22 5 8 3 40 13 70 23 165 51 369 149 512 246
31 21 61 38 67 38 5 0 11 3 13 8 2 4 35 32 73 63 94 75 147 123 209 188 28 30
63 67 79 83 15 16 27 33 27 38 0 4 4 10 9 12 12 5 141 184 141 197 0 6 4 11
10 11 5 0 12 11 16 25 3 14 10 25 16 25 15 0 50 -21 77 -46 14 -13 31 -24 38
-24 7 0 13 -3 13 -7 0 -5 17 -19 38 -33 20 -14 42 -30 49 -36 29 -28 117 -77
159 -90 63 -19 111 -18 183 5 33 10 63 16 66 13 3 -3 5 0 5 6 0 7 5 12 10 12
6 0 43 19 83 42 125 71 345 178 369 178 8 0 18 4 24 8 5 5 38 19 74 31 36 12
72 25 80 28 8 3 20 7 25 8 6 2 37 11 70 21 33 10 65 19 70 20 6 2 21 6 35 9
14 4 34 8 45 10 11 2 21 4 23 5 4 4 15 7 57 14 l40 8 0 424 c0 276 -3 424 -10
424 -5 0 -62 -14 -125 -30 -63 -17 -122 -32 -130 -34 -54 -15 -271 -83 -355
-112 -55 -19 -104 -36 -110 -38 -5 -2 -23 -8 -38 -14 -16 -7 -30 -12 -31 -12
-2 0 -25 -10 -52 -22 -27 -12 -51 -23 -54 -23 -3 0 -16 -7 -30 -15 -14 -8 -27
-15 -30 -15 -3 0 -20 -9 -37 -18 l-32 -17 -22 42 c-21 41 -53 90 -74 114 -5 6
-19 23 -30 38 -11 15 -30 40 -43 54 -13 15 -30 39 -40 55 -9 15 -20 27 -24 27
-4 0 -8 6 -8 13 0 6 -18 25 -39 41 l-39 29 17 31 c19 33 39 88 46 127 3 13 7
35 10 49 23 106 29 155 28 225 -2 134 -73 250 -188 304 -65 31 -108 38 -231
41 -14 0 -37 20 -65 57 -66 88 -68 90 -165 188 -51 50 -118 111 -150 135 -33
25 -60 48 -62 53 -2 4 -10 7 -18 7 -8 0 -14 3 -14 8 0 4 -30 25 -66 47 -36 22
-75 48 -87 57 -21 17 -20 17 43 12 36 -3 76 -8 90 -10 14 -3 39 -7 55 -9 17
-2 39 -6 50 -8 11 -3 40 -8 65 -12 25 -4 52 -11 60 -15 8 -4 29 -10 45 -14 42
-7 77 -16 100 -26 11 -4 36 -13 55 -20 61 -21 183 -73 239 -103 42 -21 56 -25
63 -15 5 7 18 29 30 48 12 19 24 37 27 40 4 3 12 17 20 33 8 15 18 27 23 27 4
0 8 5 8 11 0 9 55 97 69 109 3 3 11 14 17 26 10 17 9 23 -5 31 -68 46 -198
134 -206 141 -47 38 -416 201 -515 227 -8 2 -51 13 -95 25 -44 12 -91 24 -105
26 -14 2 -36 7 -50 9 -14 3 -36 8 -50 10 -14 3 -43 7 -65 10 -22 3 -50 7 -62
9 -52 10 -399 27 -406 19z"/>
</g>
</svg>
