<svg width="26" height="16" viewBox="0 0 26 16" fill="none" xmlns="http://www.w3.org/2000/svg">
<g clip-path="url(#clip0_70_1763)">
<path d="M0 0H6.5L6.76813 0.33H19.2319L19.5 0H26V16H19.5L19.2319 15.67H6.76813L6.5 16H0V0Z" fill="#D52B1E"/>
<path d="M6.5 0H19.5V16H6.5V0ZM13.2438 14.7667L13.1219 11.89C13.1201 11.8427 13.127 11.7955 13.142 11.7519C13.157 11.7083 13.1798 11.6694 13.2086 11.638C13.2375 11.6067 13.2716 11.5837 13.3087 11.5708C13.3457 11.5579 13.3846 11.5553 13.4225 11.5633L15.749 12.0667L15.4348 11C15.422 10.9576 15.4204 10.9113 15.4301 10.8676C15.4398 10.824 15.4604 10.7852 15.489 10.7567L18.0375 8.21667L17.4633 7.88667C17.4246 7.86411 17.3938 7.82491 17.3768 7.77642C17.3599 7.72794 17.3579 7.6735 17.3713 7.62333L17.875 5.71667L16.4071 6.1C16.3673 6.11021 16.3259 6.10317 16.2899 6.08008C16.2538 6.057 16.2254 6.01928 16.2094 5.97333L15.925 5.15L14.7794 6.66333C14.7532 6.69734 14.7187 6.71998 14.6812 6.72785C14.6437 6.73572 14.6051 6.72841 14.5712 6.707C14.5373 6.6856 14.51 6.65125 14.4933 6.60913C14.4767 6.567 14.4716 6.51935 14.4787 6.47333L15.0312 2.96667L14.1456 3.59667C14.1248 3.61167 14.1018 3.62125 14.0778 3.62483C14.0539 3.6284 14.0296 3.62589 14.0065 3.61746C13.9834 3.60902 13.962 3.59483 13.9435 3.57577C13.925 3.55672 13.9099 3.5332 13.8992 3.50667L13 1.33333L12.1008 3.50667C12.0901 3.5332 12.075 3.55672 12.0565 3.57577C12.038 3.59483 12.0166 3.60902 11.9935 3.61746C11.9704 3.62589 11.9461 3.6284 11.9222 3.62483C11.8982 3.62125 11.8752 3.61167 11.8544 3.59667L10.9688 2.96667L11.5212 6.47333C11.5284 6.51935 11.5233 6.567 11.5067 6.60913C11.49 6.65125 11.4627 6.6856 11.4288 6.707C11.3949 6.72841 11.3563 6.73572 11.3188 6.72785C11.2813 6.71998 11.2468 6.69734 11.2206 6.66333L10.075 5.15L9.79062 5.97333C9.77461 6.01928 9.74617 6.057 9.71013 6.08008C9.6741 6.10317 9.63269 6.11021 9.59292 6.1L8.125 5.71667L8.62875 7.62333C8.6421 7.6735 8.64011 7.72794 8.62315 7.77642C8.6062 7.82491 8.57544 7.86411 8.53667 7.88667L7.9625 8.21667L10.511 10.7567C10.5396 10.7852 10.5602 10.824 10.5699 10.8676C10.5796 10.9113 10.578 10.9576 10.5652 11L10.251 12.0667L12.5775 11.5633C12.6154 11.5553 12.6543 11.5579 12.6913 11.5708C12.7284 11.5837 12.7625 11.6067 12.7914 11.638C12.8202 11.6694 12.843 11.7083 12.858 11.7519C12.873 11.7955 12.8799 11.8427 12.8781 11.89L12.7562 14.7667H13.2438Z" fill="white"/>
</g>
<defs>
<clipPath id="clip0_70_1763">
<rect width="26" height="16" rx="2" fill="white"/>
</clipPath>
</defs>
</svg>
