<svg width="26" height="16" viewBox="0 0 26 16" fill="none" xmlns="http://www.w3.org/2000/svg">
<g clip-path="url(#clip0_70_1764)">
<path d="M26 0H0V16H26V0Z" fill="#EE1C25"/>
<path d="M26 0H0V10.6667H26V0Z" fill="#0B4EA2"/>
<path d="M26 0H0V5.33333H26V0Z" fill="white"/>
<path d="M11.3678 3.75977H11.1338H7.79712H4.46334H4.22934L4.20623 3.97577C4.20046 4.02377 4.07623 5.1491 4.07623 7.6211C4.07623 8.78376 4.5009 9.80777 5.34157 10.6664C5.92801 11.2691 6.69646 11.7758 7.68735 12.2158L7.80001 12.2664L7.91268 12.2158C8.90357 11.7758 9.67201 11.2691 10.2585 10.6664C11.0962 9.80777 11.5238 8.7811 11.5238 7.6211C11.5238 5.1491 11.3996 4.02377 11.3938 3.97577L11.3678 3.75977Z" fill="white"/>
<path d="M7.79715 11.9999C6.37293 11.3652 4.33337 10.1092 4.33337 7.61858C4.33337 5.12791 4.46337 3.99991 4.46337 3.99991H7.80004H11.1367C11.1367 3.99991 11.2667 5.13058 11.2667 7.61858C11.2609 10.1092 9.22426 11.3652 7.79715 11.9999Z" fill="#EE1C25"/>
<path d="M8.10325 6.96815C8.49036 6.97348 9.24147 6.98682 9.91169 6.78148C9.91169 6.78148 9.89436 7.00282 9.89436 7.26148C9.89436 7.52015 9.91169 7.74148 9.91169 7.74148C9.29636 7.55215 8.53658 7.54682 8.10325 7.55215V8.92549H7.49369V7.55215C7.05747 7.54682 6.30058 7.55215 5.68524 7.74148C5.68524 7.74148 5.70257 7.52015 5.70257 7.26148C5.70257 7.00282 5.68524 6.78148 5.68524 6.78148C6.35547 6.98948 7.10947 6.97348 7.49369 6.96815V6.10415C7.14124 6.10148 6.63569 6.11748 6.0608 6.29348C6.0608 6.29348 6.07813 6.07215 6.07813 5.81348C6.07813 5.55482 6.0608 5.33348 6.0608 5.33348C6.6328 5.50948 7.13836 5.52548 7.4908 5.52282C7.47347 4.97615 7.30013 4.28815 7.30013 4.28815C7.30013 4.28815 7.65547 4.31481 7.79702 4.31481C7.93858 4.31481 8.29391 4.28815 8.29391 4.28815C8.29391 4.28815 8.12058 4.97615 8.10325 5.52282C8.45569 5.52548 8.96125 5.50948 9.53325 5.33348C9.53325 5.33348 9.51592 5.55482 9.51592 5.81348C9.51592 6.07215 9.53325 6.29348 9.53325 6.29348C8.96125 6.11748 8.4528 6.10148 8.10036 6.10415V6.96815H8.10325Z" fill="white"/>
<path d="M7.79705 8.77625C7.07772 8.77625 6.6935 9.69625 6.6935 9.69625C6.6935 9.69625 6.47972 9.26158 5.89328 9.26158C5.4975 9.26158 5.20572 9.58691 5.01794 9.88825C5.74017 10.9469 6.88994 11.6002 7.79416 12.0029C8.69838 11.6002 9.85105 10.9469 10.5704 9.88825C10.3855 9.58691 10.0937 9.26158 9.69505 9.26158C9.10861 9.26158 8.89483 9.69625 8.89483 9.69625C8.89483 9.69625 8.51638 8.77625 7.79705 8.77625Z" fill="#0B4EA2"/>
</g>
<defs>
<clipPath id="clip0_70_1764">
<rect width="26" height="16" rx="2" fill="white"/>
</clipPath>
</defs>
</svg>
