<svg width="16" height="17" viewBox="0 0 16 17" fill="none" xmlns="http://www.w3.org/2000/svg">
<path opacity="1" fill-rule="evenodd" clip-rule="evenodd" d="M15 0.987976H3.99994C3.4473 0.987976 2.99995 1.43884 2.99995 1.99588V3.0038H4.99993H12.9999C13.5527 3.0038 13.9999 3.4551 13.9999 4.01156V10.0589V12.0747H15C15.5526 12.0747 16 11.6238 16 11.0667V1.99588C16 1.43884 15.5526 0.987976 15 0.987976ZM11.9999 4.01156H0.999875C0.450091 4.01156 0 4.4752 0 5.04158V13.0825C0 13.6489 0.450091 14.0904 0.999875 14.0904H4.71966L10.0976 16.8788C10.5956 17.1248 10.9999 17.0047 10.9999 16.4363V14.0904H11.9999C12.5498 14.0904 12.9999 13.6489 12.9999 13.0825V5.04158C12.9999 4.4752 12.5498 4.01156 11.9999 4.01156ZM9.99997 10.5628C9.99997 10.8414 9.77634 11.0667 9.49996 11.0667H3.49993C3.22356 11.0667 2.99995 10.8414 2.99995 10.5628V9.55502C2.99995 9.27634 3.22356 9.05098 3.49993 9.05098H9.49996C9.77634 9.05098 9.99997 9.27634 9.99997 9.55502V10.5628ZM9.99997 7.53932C9.99997 7.81784 9.77634 8.04308 9.49996 8.04308H3.49993C3.22356 8.04308 2.99995 7.81784 2.99995 7.53932V6.53128C2.99995 6.25262 3.22356 6.02724 3.49993 6.02724H9.49996C9.77634 6.02724 9.99997 6.25262 9.99997 6.53128V7.53932Z" fill="#152B48"/>
</svg>
