<svg width="14" height="17" viewBox="0 0 14 17" fill="none" xmlns="http://www.w3.org/2000/svg">
<path opacity="1" fill-rule="evenodd" clip-rule="evenodd" d="M8 0.99982H9.00009C9.7285 0.99982 10.0001 1.41626 10.0001 1.99994V3.49998C10.0001 3.77636 9.77646 3.9999 9.50008 3.9999H4.50004C4.22367 3.9999 4.00005 3.77636 4.00005 3.49998V1.99994C4.00005 1.41626 4.35402 0.99982 5.00004 0.99982H6.00001C6.00001 0.44776 6.44737 0 7 0C7.55276 0 8 0.44776 8 0.99982ZM11.0001 4.49996V3.9999V1.99994H13C13.5527 1.99994 14 2.44728 14 2.99992V15.9999C14 16.5527 13.5527 16.9998 13 16.9998H1.00009C0.447355 16.9998 0 16.5527 0 15.9999V2.99992C0 2.44728 0.447355 1.99994 1.00009 1.99994H3.00008V4.49996C3.00008 4.77634 3.22357 5 3.50006 5H4.00005H10.4999C10.7764 5 11.0001 4.77634 11.0001 4.49996ZM3.50006 12.9999H10.4999C10.7764 12.9999 11.0001 12.7763 11.0001 12.4999V11.4999C11.0001 11.2235 10.7764 10.9999 10.4999 10.9999H3.50006C3.22357 10.9999 3.00008 11.2235 3.00008 11.4999V12.4999C3.00008 12.7763 3.22357 12.9999 3.50006 12.9999ZM3.50006 9.99988H10.4999C10.7764 9.99988 11.0001 9.77636 11.0001 9.49996V8.49984C11.0001 8.2236 10.7764 7.99994 10.4999 7.99994H3.50006C3.22357 7.99994 3.00008 8.2236 3.00008 8.49984V9.49996C3.00008 9.77636 3.22357 9.99988 3.50006 9.99988Z" fill="#152B48"/>
</svg>
