<svg width="15" height="15" viewBox="0 0 15 15" fill="none" xmlns="http://www.w3.org/2000/svg">
<g opacity="1">
<path d="M14.6018 3.32733C14.5076 2.78431 14.0714 2.36556 13.525 2.29358C11.5284 2.01712 9.51555 1.87534 7.49997 1.8692C5.48439 1.87534 3.47151 2.01712 1.47497 2.29358C0.928558 2.36556 0.492337 2.78431 0.398095 3.32733C-0.132536 6.08348 -0.132536 8.91555 0.398095 11.6717C0.492278 12.2149 0.92846 12.6338 1.47497 12.7061C3.47148 12.9827 5.48439 13.1243 7.49997 13.1298C9.51555 13.1243 11.5285 12.9827 13.525 12.7061C14.0715 12.6338 14.5077 12.2149 14.6018 11.6717C15.1325 8.91555 15.1325 6.08348 14.6018 3.32733Z" fill="#152B48"/>
<path d="M9.66 6.95983L5.95875 5.07358C5.76255 4.96653 5.52506 4.96801 5.33021 5.0775C5.13536 5.18699 5.01059 5.38907 5 5.61233V9.3867C5.01139 9.60961 5.13624 9.81111 5.33077 9.92055C5.52529 10.03 5.76233 10.0321 5.95875 9.92608L9.66 8.0392C9.86748 7.93951 9.99944 7.72971 9.99944 7.49952C9.99944 7.26933 9.86748 7.05952 9.66 6.95983Z" fill="#EDEDED"/>
</g>
</svg>
