<svg width="24" height="24" viewBox="0 0 24 24" fill="none" xmlns="http://www.w3.org/2000/svg"><path clip-rule="evenodd" d="M7.496 3h9.009A4.495 4.495 0 0121 7.496v9.009A4.495 4.495 0 0116.504 21H7.496A4.495 4.495 0 013 16.504V7.496A4.495 4.495 0 017.496 3v0z" stroke="url(#paint0_linear_192_1121)" stroke-width="1.5" stroke-linecap="round" stroke-linejoin="round"/><path d="M16.949 6.713a.338.338 0 10.002.674.338.338 0 00-.002-.674" stroke="url(#paint1_linear_192_1121)" stroke-width="1.5" stroke-linecap="round" stroke-linejoin="round"/><path d="M14.546 9.454a3.6 3.6 0 11-5.092 5.092 3.6 3.6 0 015.092-5.092" stroke="url(#paint2_linear_192_1121)" stroke-width="1.5" stroke-linecap="round" stroke-linejoin="round"/><defs><linearGradient id="paint0_linear_192_1121" x1="20.9" y1="20.95" x2="20.9" y2="3.14" gradientUnits="userSpaceOnUse"><stop stop-color="#E09B3D"/><stop offset=".3" stop-color="#C74C4D"/><stop offset=".6" stop-color="#C21975"/><stop offset="1" stop-color="#7024C4"/></linearGradient><linearGradient id="paint1_linear_192_1121" x1="17.44" y1="7.55" x2="17.44" y2="6.56" gradientUnits="userSpaceOnUse"><stop stop-color="#E09B3D"/><stop offset=".3" stop-color="#C74C4D"/><stop offset=".6" stop-color="#C21975"/><stop offset="1" stop-color="#7024C4"/></linearGradient><linearGradient id="paint2_linear_192_1121" x1="15.56" y1="15.58" x2="15.56" y2="8.46" gradientUnits="userSpaceOnUse"><stop stop-color="#E09B3D"/><stop offset=".3" stop-color="#C74C4D"/><stop offset=".6" stop-color="#C21975"/><stop offset="1" stop-color="#7024C4"/></linearGradient></defs></svg>