<svg width="16" height="17" viewBox="0 0 16 17" fill="none" xmlns="http://www.w3.org/2000/svg"><path fill-rule="evenodd" clip-rule="evenodd" d="M15 .988H4c-.553 0-1 .45-1 1.008v1.008h10c.553 0 1 .451 1 1.008V12.075h1c.553 0 1-.451 1-1.008V1.996c0-.557-.447-1.008-1-1.008zm-3 3.024H1c-.55 0-1 .463-1 1.03v8.04a1 1 0 001 1.008h3.72l5.378 2.789c.498.246.902.126.902-.443V14.09h1a1 1 0 001-1.008v-8.04c0-.567-.45-1.03-1-1.03zm-2 6.55a.502.502 0 01-.5.505h-6a.502.502 0 01-.5-.504V9.555c0-.279.224-.504.5-.504h6c.276 0 .5.225.5.504v1.008zm0-3.023a.502.502 0 01-.5.504h-6A.502.502 0 013 7.54V6.531c0-.278.224-.504.5-.504h6c.276 0 .5.226.5.504V7.54z" fill="#152B48"/></svg>