<svg width="14" height="17" viewBox="0 0 14 17" fill="none" xmlns="http://www.w3.org/2000/svg"><path fill-rule="evenodd" clip-rule="evenodd" d="M8 1h1c.729 0 1 .416 1 1v1.5a.5.5 0 01-.5.5h-5a.5.5 0 01-.5-.5V2c0-.584.354-1 1-1h1a1 1 0 112 0zm3 3.5V2h2a1 1 0 011 1v13a1 1 0 01-1 1H1a1 1 0 01-1-1V3a1 1 0 011-1h2v2.5a.5.5 0 00.5.5h7a.5.5 0 00.5-.5zM3.5 13h7a.5.5 0 00.5-.5v-1a.5.5 0 00-.5-.5h-7a.5.5 0 00-.5.5v1a.5.5 0 00.5.5zm0-3h7a.5.5 0 00.5-.5v-1a.5.5 0 00-.5-.5h-7a.5.5 0 00-.5.5v1a.5.5 0 00.5.5z" fill="#152B48"/></svg>