<svg width="15" height="15" viewBox="0 0 15 15" fill="none" xmlns="http://www.w3.org/2000/svg"><path d="M14.602 3.327a1.26 1.26 0 00-1.077-1.033A44.925 44.925 0 007.5 1.869a44.924 44.924 0 00-6.025.425A1.26 1.26 0 00.398 3.327a22.069 22.069 0 000 8.345c.094.543.53.962 1.077 1.034 1.996.277 4.01.418 6.025.424a44.795 44.795 0 006.025-.424 1.26 1.26 0 001.077-1.034c.53-2.756.53-5.589 0-8.345z" fill="#152B48"/><path d="M9.66 6.96L5.959 5.074A.649.649 0 005 5.612v3.775a.65.65 0 00.959.54L9.66 8.038a.599.599 0 000-1.08z" fill="#EDEDED"/></svg>